<!--?xml version="1.0" encoding="utf-8"?-->
<!-- Svg Vector Icons : http://www.onlinewebfonts.com/icon -->

<svg version="1.1" xmlns="http://www.w3.org/2000/svg" xmlns:xlink="http://www.w3.org/1999/xlink" x="0px" y="0px" viewBox="0 0 256 256" enable-background="new 0 0 256 256" xml:space="preserve">
<metadata> Svg Vector Icons : http://www.onlinewebfonts.com/icon </metadata>
<g><g><g><path fill="#b2d690" data-title="Layer 0" xs="0" d="M46.3,10.7c-5.1,1.1-9.5,4.3-12.2,8.8c-3.1,5.1-3,3.2-2.9,56.2l0.1,48l1.1,2.6c2.2,5.3,6.1,9.2,11.4,11.4c2.5,1,3,1.1,21.7,1.1h19.1l0.2-4.9c0.2-5.1,0.6-6.2,3-8.8c4.4-4.9,12.6-2.5,14.6,4.3c0.4,1.3,0.7,4,0.7,6v3.7H128h24.9l0.2-4.6c0.3-5.3,1.1-7.5,3.9-9.9c3.4-3,7.6-2.9,11,0c2.5,2.2,3.5,4.9,3.8,10.1l0.2,4.4h17.3c9.7,0,18.4-0.2,19.8-0.5c7.4-1.4,13.4-7,15.3-14.4c0.5-1.9,0.7-11.7,0.7-49.7s-0.1-47.8-0.7-49.7c-2-7.4-7.9-12.9-15.3-14.4c-1.6-0.3-30.1-0.5-81.1-0.4C63,10,48.7,10.1,46.3,10.7z M134.3,39.5c3.4,1.9,4.8,4,7.2,10.5c2.2,6.1,2.5,8.4,1.6,12.7c-0.4,1.8-0.8,2.5-1.6,2.8c-0.8,0.3-1.3,1.1-1.8,3.2c-0.4,1.6-1.5,4-2.3,5.3c-1.1,1.8-1.4,2.6-1,3.2c0.2,0.4,4,2.6,8.3,4.8c9.5,4.9,10.6,5.7,12.9,9.5l1.7,2.9l-0.5,3.1c-0.6,3.6-2.1,5.3-5.2,6.2c-1.3,0.3-9.9,0.5-26.5,0.4l-24.6-0.1l-2-1.1c-2.3-1.2-2.8-2.3-3.2-6.2c-0.2-2.3,0-3,1.4-5.9c2.4-4.9,3.6-6,8.6-7.5c5-1.5,10.5-4,11.7-5.4c0.9-1,0.9-1-0.8-4.7c-0.9-2-2-4.5-2.3-5.5c-0.3-1-1-2.4-1.5-2.9c-1.4-1.5-1.6-5.6-0.4-12.4c0.8-5,1.2-6.2,2.6-8.3C120.4,38.1,128.2,36.1,134.3,39.5z"/><path fill="#feec37" data-title="Layer 1" xs="1" d="M45.4,154.5c-6.2,0.7-12,3-13.6,5.3c-1,1.6-6.1,37.7-5.5,38.9c1.3,2.5,6.1,4.7,12.3,5.7c2.5,0.4,27,0.5,91.5,0.4c87.5-0.1,88-0.1,91.1-1.1c4.2-1.3,7.4-3.2,8.1-4.9c0.5-1.2,0.2-4-1.9-19.2c-1.4-9.7-2.7-18.3-3-19c-0.7-1.6-3.3-3.4-6.9-4.6c-4.4-1.5-12.2-2-29.7-1.8l-16.2,0.1l-0.2,4.7c-0.3,5.4-1.1,7.6-3.9,9.8c-2.2,1.7-6.4,2.3-8.7,1.1c-4-2.1-5.8-5.9-5.8-12.2V154h-24.9h-24.9l-0.2,4.6c-0.2,4.9-0.9,6.8-3.2,9.2c-1.8,2-3.4,2.7-6.2,2.7c-2.7,0-4.4-0.7-6.2-2.7c-2-2.1-2.8-4.7-3.1-9.5l-0.2-4.3l-17.7,0C56.7,154.1,47.2,154.3,45.4,154.5z"/><path fill="#ffa24c" data-title="Layer 2" xs="2" d="M31.9,212.3c-0.1,0.2-0.3,1.8-0.5,3.5L31,219l1.9,1.8c2.1,2,5.8,3.4,10.9,4.2c4.2,0.7,164.3,0.7,168.5,0c5.1-0.8,8.8-2.3,10.9-4.3l1.9-1.8l-0.3-2.7c-0.6-4.6-0.5-4.5-2.9-3.4c-5.3,2.4-3.2,2.3-93.9,2.3c-90.7,0-88.6,0-93.9-2.3C33,212.3,32,212.1,31.9,212.3z"/><path fill="#ff77b7" data-title="Layer 3" xs="3" d="M36.6,234.8c-0.1,1.2-0.3,2.9-0.3,3.7c0,2.7,3.2,5.1,9.1,6.7c2.7,0.8,8.5,0.8,82.7,0.8c74.8,0,80,0,82.8-0.8c3.8-1,7.3-2.9,8.3-4.5c0.6-0.9,0.7-1.9,0.5-4.5c-0.3-3.6-0.5-4-1.4-3.2c-0.3,0.2-2.1,1-3.9,1.6l-3.3,1.1l-80.5,0.1c-58.3,0.1-81.5,0-84.3-0.4c-3.2-0.5-5.2-1-8.8-2.5C37,232.6,36.8,233,36.6,234.8z"/></g></g></g>
</svg>